<svg width="1749" height="1118" viewBox="0 0 1749 1118" fill="none" xmlns="http://www.w3.org/2000/svg">
<path d="M1452.06 0.62496C1453.18 0.625172 1454.29 0.625383 1455.44 0.625601C1485.67 0.68233 1515.49 3.26225 1545 9.99996C1545.77 10.17 1546.53 10.34 1547.32 10.5151C1587.1 19.434 1625.57 36.0908 1655.73 63.9218C1657.8 65.8181 1659.92 67.6303 1662.06 69.4375C1676.7 82.3002 1688.26 99.2338 1698 116C1698.47 116.8 1698.94 117.599 1699.42 118.423C1725.89 164.126 1738.2 215.597 1744.19 267.687C1744.27 268.355 1744.35 269.022 1744.43 269.709C1747.59 296.833 1748.31 324.128 1748.2 351.407C1748.19 354.813 1748.19 358.219 1748.19 361.625C1748.18 371.458 1748.15 381.292 1748.13 391.125C1748.08 413.194 1748.04 435.262 1748 458C1697.51 458 1647.02 458 1595 458C1594.95 445.597 1594.9 433.193 1594.85 420.414C1594.82 412.512 1594.78 404.609 1594.74 396.707C1594.68 384.19 1594.62 371.674 1594.58 359.157C1594.55 350.036 1594.51 340.916 1594.46 331.796C1594.43 326.979 1594.41 322.161 1594.4 317.343C1594.34 296.808 1594.09 276.45 1592 256C1591.9 254.961 1591.79 253.922 1591.68 252.851C1587.93 216.077 1578.55 170.839 1548.52 145.894C1538.04 138.002 1527.32 132.475 1515 128C1514.31 127.741 1513.61 127.481 1512.89 127.214C1506.85 125.061 1500.76 123.909 1494.44 122.875C1493.45 122.706 1492.46 122.537 1491.44 122.363C1482.38 120.836 1473.69 119.843 1464.5 119.832C1463.51 119.829 1462.51 119.825 1461.49 119.822C1459.39 119.817 1457.29 119.814 1455.2 119.815C1452.04 119.812 1448.88 119.794 1445.72 119.775C1430.75 119.732 1416.37 120.479 1401.81 124.312C1400.97 124.53 1400.13 124.747 1399.26 124.971C1392.29 126.82 1385.6 129.082 1379 132C1378 132.44 1377 132.879 1375.97 133.332C1368.23 136.957 1361.66 141.682 1355 147C1354.17 147.623 1353.34 148.245 1352.48 148.887C1342.25 157.601 1335.59 170 1330 182C1329.54 182.979 1329.54 182.979 1329.06 183.978C1319.44 204.856 1314.72 229.435 1312.3 252.167C1312.12 253.922 1311.92 255.677 1311.73 257.431C1309.54 277.44 1309.65 297.479 1309.6 317.579C1309.58 322.531 1309.55 327.484 1309.53 332.437C1309.48 341.775 1309.44 351.113 1309.41 360.452C1309.37 373.099 1309.3 385.747 1309.24 398.394C1309.15 418.263 1309.08 438.131 1309 458C1258.84 458 1208.68 458 1157 458C1156.96 433.642 1156.92 409.284 1156.88 384.187C1156.86 376.55 1156.84 368.913 1156.82 361.044C1156.81 351.581 1156.81 351.581 1156.81 347.124C1156.81 344.069 1156.8 341.015 1156.79 337.96C1156.73 319.466 1157.09 301.202 1158.75 282.766C1159.07 279.209 1159.34 275.649 1159.6 272.088C1164.95 200.708 1188.5 124.398 1239.53 72.4965C1240.76 71.2429 1241.97 69.9659 1243.16 68.6836C1279.81 30.0907 1336.15 12.0514 1387.38 4.81246C1388.46 4.65761 1389.54 4.50276 1390.66 4.34322C1411.05 1.62218 1431.5 0.58833 1452.06 0.62496Z" fill="#171616"/>
<path d="M496 10C545.83 10 595.66 10 647 10C647 157.84 647 305.68 647 458C597.17 458 547.34 458 496 458C496 310.16 496 162.32 496 10Z" fill="#171616"/>
<path d="M157 10C206.5 10 256 10 307 10C307 157.84 307 305.68 307 458C257.5 458 208 458 157 458C157 310.16 157 162.32 157 10Z" fill="#171616"/>
<path d="M895 11C940.87 11 986.74 11 1034 11C1033.13 15.3566 1031.88 18.8965 1030.07 22.8867C1029.77 23.5639 1029.47 24.241 1029.16 24.9387C1028.15 27.1906 1027.14 29.439 1026.12 31.6875C1025.41 33.2896 1024.69 34.8918 1023.97 36.4941C1017.72 50.469 1011.39 64.4131 1005.07 78.3582C999.998 89.5508 994.976 100.764 990 112C984.23 125.029 978.385 138.022 972.5 151C966.596 164.02 960.73 177.055 954.938 190.125C949.27 202.914 943.559 215.683 937.812 228.438C937.431 229.284 937.05 230.13 936.657 231.002C935.155 234.336 933.653 237.669 932.151 241.003C928.821 248.394 925.502 255.79 922.188 263.188C921.667 264.35 921.146 265.512 920.609 266.709C919.073 270.14 917.536 273.57 916 277C913.938 281.604 911.875 286.209 909.812 290.812C909.287 291.986 908.761 293.16 908.219 294.37C905.067 301.401 901.908 308.428 898.742 315.453C897.224 318.823 895.706 322.193 894.188 325.562C893.804 326.413 893.421 327.264 893.026 328.14C887.34 340.766 881.699 353.411 876.09 366.07C869.891 380.052 863.596 393.989 857.26 407.91C849.704 424.55 842.378 441.275 835 458C782.86 458 730.72 458 677 458C682.558 446.267 688.129 434.547 693.812 422.875C694.54 421.379 695.267 419.883 695.995 418.388C703.299 403.369 710.625 388.361 717.949 373.352C722.865 363.278 727.778 353.202 732.688 343.125C733.081 342.317 733.474 341.51 733.88 340.678C739.755 328.617 745.619 316.551 751.477 304.483C758.528 289.959 765.606 275.449 772.686 260.94C773.315 259.651 773.315 259.651 773.957 258.336C774.586 257.047 774.586 257.047 775.228 255.731C781.644 242.584 788.048 229.431 794.454 216.279C797.241 210.558 800.028 204.838 802.816 199.117C810.367 183.625 817.912 168.129 825.438 152.625C831.569 139.993 837.717 127.369 843.875 114.75C844.503 113.464 844.503 113.464 845.143 112.152C846.835 108.685 848.527 105.217 850.219 101.749C854.315 93.3549 858.409 84.9589 862.5 76.562C863.678 74.1442 864.857 71.7266 866.035 69.3091C869.966 61.2429 873.887 53.1721 877.793 45.0938C878.95 42.7021 880.108 40.3105 881.266 37.9189C882.34 35.697 883.412 33.4738 884.483 31.2505C885.142 29.8883 885.802 28.5261 886.461 27.1641C887.026 25.9931 887.591 24.8222 888.173 23.6157C890.329 19.348 892.678 15.1797 895 11Z" fill="#171616"/>
<path d="M1157 656C1207.16 656 1257.32 656 1309 656C1309.05 667.5 1309.1 678.999 1309.15 690.848C1309.18 698.171 1309.22 705.495 1309.26 712.818C1309.32 724.42 1309.38 736.022 1309.42 747.624C1309.45 756.077 1309.49 764.53 1309.54 772.984C1309.57 777.449 1309.59 781.915 1309.6 786.381C1309.66 805.006 1309.81 823.475 1312 842C1312.13 843.082 1312.13 843.082 1312.26 844.185C1312.73 848.217 1313.28 852.234 1313.87 856.25C1314.05 857.432 1314.22 858.614 1314.41 859.832C1314.92 863.224 1315.45 866.613 1316 870C1316.14 870.876 1316.28 871.752 1316.43 872.655C1319.89 893.198 1326.63 913.904 1337 932C1337.86 933.512 1337.86 933.512 1338.74 935.055C1342.76 941.732 1347.54 947.449 1353 953C1354.03 954.05 1354.03 954.05 1355.08 955.121C1367.08 966.541 1383.39 973.406 1399.19 977.688C1400.23 977.973 1400.23 977.973 1401.29 978.264C1417.77 982.47 1434.11 983.545 1451.06 983.438C1452.09 983.434 1453.12 983.431 1454.18 983.427C1487.6 983.269 1520.05 978.295 1547 957C1547.62 956.544 1548.24 956.087 1548.88 955.617C1573.37 936.596 1582.23 899.559 1588 871C1588.14 870.375 1588.28 869.751 1588.43 869.107C1594.34 841.753 1594.61 813.28 1594.61 785.425C1594.61 780.846 1594.64 776.267 1594.66 771.688C1594.7 763.087 1594.72 754.486 1594.73 745.884C1594.75 734.212 1594.8 722.54 1594.85 710.868C1594.93 692.579 1594.96 674.29 1595 656C1645.49 656 1695.98 656 1748 656C1748.03 684.988 1748.03 684.988 1748.06 714.562C1748.07 720.618 1748.08 726.673 1748.09 732.912C1748.09 740.426 1748.09 740.426 1748.1 743.966C1748.1 746.388 1748.1 748.811 1748.11 751.233C1748.15 773.917 1747.51 796.423 1745.25 819C1745.12 820.31 1745.12 820.31 1744.99 821.647C1743.33 838.226 1741.13 854.627 1738 871C1737.65 872.849 1737.65 872.849 1737.29 874.734C1731.39 904.754 1722.22 934.381 1709 962C1708.61 962.842 1708.21 963.684 1707.81 964.551C1699.22 982.874 1688.94 1000.4 1676 1016C1675.52 1016.58 1675.04 1017.16 1674.55 1017.75C1665.23 1028.97 1655.47 1038.94 1644 1048C1643.05 1048.78 1642.09 1049.56 1641.11 1050.37C1620.7 1066.73 1596.98 1078.19 1572.21 1086.26C1570.26 1086.91 1568.33 1087.62 1566.4 1088.33C1536.13 1099.32 1501.28 1103.04 1469.25 1103.24C1467.97 1103.25 1466.69 1103.26 1465.37 1103.27C1461.25 1103.29 1457.12 1103.31 1453 1103.31C1452.3 1103.31 1451.6 1103.32 1450.87 1103.32C1428.03 1103.35 1405.61 1102.52 1383 1099C1381.41 1098.77 1381.41 1098.77 1379.78 1098.53C1364.56 1096.28 1349.74 1092.36 1335 1088C1334.13 1087.74 1333.26 1087.49 1332.37 1087.22C1300.21 1077.48 1270.33 1060.09 1246 1037C1245.48 1036.51 1244.96 1036.02 1244.42 1035.52C1205.29 998.624 1182.47 944.746 1171 893C1170.76 891.97 1170.52 890.94 1170.28 889.879C1165.77 869.777 1162.33 849.464 1160 829C1159.9 828.149 1159.8 827.298 1159.7 826.421C1157.09 803.729 1156.85 781.045 1156.9 758.226C1156.9 754.971 1156.9 751.715 1156.91 748.459C1156.91 739.014 1156.92 729.57 1156.94 720.125C1156.96 698.964 1156.98 677.802 1157 656Z" fill="#171616"/>
<path d="M157 656C206.5 656 256 656 307 656C307.121 709.437 307.121 709.437 307.146 732.104C307.164 747.656 307.185 763.209 307.226 778.762C307.257 790.097 307.276 801.432 307.282 812.767C307.286 818.748 307.295 824.729 307.317 830.711C307.475 874.756 306.14 918.674 297.625 962C297.413 963.086 297.413 963.086 297.198 964.194C287.917 1011.37 267.651 1054.36 227 1082C225.975 1082.71 224.95 1083.42 223.895 1084.15C170.568 1119.06 100.881 1117.2 39.875 1117.06C26.7163 1117.04 13.5575 1117.02 0 1117C0 1081.03 0 1045.06 0 1008C11.22 1007.67 22.44 1007.34 34 1007C41.0532 1006.48 48.0011 1005.91 55 1005C56.0306 1004.87 57.0612 1004.73 58.123 1004.6C71.7769 1002.79 84.9834 1000.57 98 996C99.6049 995.449 99.6049 995.449 101.242 994.887C119.55 987.968 133.393 974.322 141.539 956.664C142.8 953.47 143.926 950.262 145 947C145.345 946.033 145.691 945.066 146.047 944.07C152.629 924.577 154.704 903.291 155.538 882.828C155.581 881.78 155.624 880.732 155.668 879.652C156.078 868.978 156.174 858.312 156.205 847.631C156.215 845.519 156.225 843.407 156.235 841.295C156.262 835.648 156.283 830.001 156.303 824.354C156.325 818.42 156.353 812.486 156.379 806.553C156.429 795.355 156.474 784.157 156.517 772.96C156.576 757.801 156.642 742.642 156.708 727.484C156.811 703.656 156.905 679.828 157 656Z" fill="#171616"/>
<path d="M496 656C555.4 656 614.8 656 676 656C674.607 660.18 673.541 663.108 671.418 666.773C670.636 668.139 670.636 668.139 669.838 669.531C669.293 670.47 668.749 671.408 668.188 672.375C666.541 675.224 664.912 678.075 663.336 680.964C661.653 683.976 659.781 686.786 657.817 689.621C646.147 707.397 646.147 723.515 646.407 744.081C646.451 748.751 646.419 753.422 646.397 758.092C646.369 766.156 646.388 774.219 646.44 782.282C646.516 793.94 646.518 805.598 646.504 817.256C646.483 836.177 646.519 855.098 646.592 874.019C646.663 892.383 646.706 910.746 646.713 929.11C646.714 930.245 646.714 931.38 646.714 932.549C646.716 938.242 646.718 943.936 646.719 949.629C646.729 996.753 646.844 1043.88 647 1091C597.17 1091 547.34 1091 496 1091C496 947.45 496 803.9 496 656Z" fill="#171616"/>
<path d="M746 656C793.85 656 841.7 656 891 656C897.884 670.916 897.884 670.916 900.305 676.992C900.585 677.688 900.866 678.384 901.155 679.101C901.753 680.586 902.35 682.072 902.946 683.558C904.585 687.645 906.235 691.726 907.883 695.809C908.394 697.076 908.394 697.076 908.916 698.37C912.495 707.239 916.117 716.09 919.75 724.938C920.077 725.733 920.403 726.529 920.74 727.349C926.663 741.776 932.62 756.188 938.579 770.6C944.478 784.868 950.347 799.147 956.188 813.438C956.56 814.35 956.933 815.262 957.317 816.202C958.803 819.837 960.289 823.473 961.774 827.108C965.489 836.2 969.211 845.288 972.938 854.375C973.26 855.162 973.583 855.948 973.915 856.758C979.778 871.05 985.678 885.327 991.58 899.602C997.478 913.869 1003.35 928.147 1009.19 942.438C1009.75 943.806 1009.75 943.806 1010.32 945.202C1011.8 948.837 1013.29 952.473 1014.77 956.108C1018.49 965.2 1022.21 974.288 1025.94 983.375C1026.26 984.16 1026.58 984.945 1026.91 985.753C1032.02 998.199 1037.15 1010.63 1042.29 1023.07C1043.49 1025.98 1044.69 1028.88 1045.89 1031.79C1046.68 1033.71 1047.48 1035.63 1048.27 1037.55C1048.66 1038.5 1049.05 1039.44 1049.45 1040.42C1051.83 1046.17 1054.21 1051.91 1056.59 1057.65C1058.1 1061.3 1059.61 1064.95 1061.12 1068.6C1061.83 1070.31 1062.54 1072.03 1063.25 1073.74C1064.23 1076.09 1065.2 1078.44 1066.17 1080.79C1066.6 1081.83 1066.6 1081.83 1067.05 1082.89C1068.22 1085.76 1069 1087.86 1069 1091C1020.82 1091 972.64 1091 923 1091C919.657 1083.65 916.428 1076.32 913.402 1068.84C912.976 1067.79 912.549 1066.74 912.11 1065.66C910.717 1062.23 909.327 1058.8 907.938 1055.38C906.953 1052.95 905.968 1050.53 904.982 1048.1C903.468 1044.38 901.954 1040.65 900.441 1036.93C896.045 1026.11 891.632 1015.29 887.214 1004.47C879.799 986.32 872.397 968.161 865 950C855.5 926.677 845.987 903.359 836.468 880.044C832.728 870.886 828.99 861.727 825.252 852.568C823.168 847.462 821.084 842.356 819 837.25C818.167 835.208 817.333 833.167 816.5 831.125C816.088 830.114 815.675 829.104 815.25 828.062C814 825 812.75 821.938 811.5 818.875C811.088 817.864 810.675 816.854 810.25 815.813C809.417 813.771 808.583 811.729 807.75 809.687C805.668 804.587 803.586 799.486 801.504 794.386C797.735 785.152 793.967 775.919 790.199 766.685C788.51 762.546 786.822 758.408 785.133 754.27C784.297 752.222 783.461 750.173 782.625 748.125C778.121 737.087 773.613 726.051 769.094 715.02C755.373 681.529 755.373 681.529 749.875 667.875C749.467 666.868 749.059 665.86 748.638 664.822C748.281 663.93 747.923 663.037 747.555 662.117C747.25 661.36 746.946 660.604 746.632 659.824C746 658 746 658 746 656Z" fill="#171616"/>
<path d="M1722.48 606V502.32H1736.69V606H1722.48Z" fill="#171616"/>
<path d="M1631.19 606V502.32H1671.38V513.072H1645.65V547.376H1666.52V557.616H1645.65V595.632H1671.64V606H1631.19Z" fill="#171616"/>
<path d="M1556.74 607.152C1550.76 607.152 1545.77 605.872 1541.76 603.312C1537.84 600.752 1534.85 597.211 1532.8 592.688C1530.75 588.165 1529.56 582.917 1529.22 576.944L1542.02 573.488C1542.27 577.157 1542.83 580.699 1543.68 584.112C1544.62 587.525 1546.11 590.341 1548.16 592.56C1550.21 594.693 1553.07 595.76 1556.74 595.76C1560.49 595.76 1563.31 594.736 1565.18 592.688C1567.15 590.555 1568.13 587.525 1568.13 583.6C1568.13 578.907 1567.06 575.152 1564.93 572.336C1562.8 569.435 1560.11 566.533 1556.86 563.632L1539.46 548.272C1536.04 545.285 1533.53 542.043 1531.9 538.544C1530.28 534.96 1529.47 530.565 1529.47 525.36C1529.47 517.765 1531.65 511.877 1536 507.696C1540.35 503.515 1546.28 501.424 1553.79 501.424C1557.89 501.424 1561.47 501.979 1564.54 503.088C1567.7 504.112 1570.3 505.733 1572.35 507.952C1574.49 510.171 1576.15 512.987 1577.34 516.4C1578.62 519.728 1579.48 523.653 1579.9 528.176L1567.62 531.504C1567.36 528.091 1566.85 524.976 1566.08 522.16C1565.31 519.259 1563.95 516.955 1561.98 515.248C1560.11 513.456 1557.38 512.56 1553.79 512.56C1550.21 512.56 1547.39 513.541 1545.34 515.504C1543.38 517.381 1542.4 520.197 1542.4 523.952C1542.4 527.109 1542.91 529.712 1543.94 531.76C1545.05 533.808 1546.8 535.899 1549.18 538.032L1566.72 553.392C1570.65 556.805 1574.1 560.901 1577.09 565.68C1580.08 570.373 1581.57 575.963 1581.57 582.448C1581.57 587.568 1580.5 592.005 1578.37 595.76C1576.24 599.429 1573.29 602.245 1569.54 604.208C1565.87 606.171 1561.6 607.152 1556.74 607.152Z" fill="#171616"/>
<path d="M1451.38 607.152C1444.39 607.152 1438.8 605.787 1434.62 603.056C1430.44 600.325 1427.45 596.443 1425.66 591.408C1423.86 586.288 1422.97 580.315 1422.97 573.488V534.192C1422.97 527.365 1423.86 521.52 1425.66 516.656C1427.53 511.707 1430.52 507.952 1434.62 505.392C1438.8 502.747 1444.39 501.424 1451.38 501.424C1458.38 501.424 1463.93 502.747 1468.02 505.392C1472.12 508.037 1475.06 511.792 1476.86 516.656C1478.73 521.52 1479.67 527.365 1479.67 534.192V573.616C1479.67 580.357 1478.73 586.245 1476.86 591.28C1475.06 596.315 1472.12 600.24 1468.02 603.056C1463.93 605.787 1458.38 607.152 1451.38 607.152ZM1451.38 595.76C1455.22 595.76 1458.13 594.992 1460.09 593.456C1462.05 591.835 1463.37 589.616 1464.06 586.8C1464.74 583.899 1465.08 580.528 1465.08 576.688V531.248C1465.08 527.408 1464.74 524.123 1464.06 521.392C1463.37 518.576 1462.05 516.443 1460.09 514.992C1458.13 513.456 1455.22 512.688 1451.38 512.688C1447.54 512.688 1444.6 513.456 1442.55 514.992C1440.59 516.443 1439.27 518.576 1438.58 521.392C1437.9 524.123 1437.56 527.408 1437.56 531.248V576.688C1437.56 580.528 1437.9 583.899 1438.58 586.8C1439.27 589.616 1440.59 591.835 1442.55 593.456C1444.6 594.992 1447.54 595.76 1451.38 595.76Z" fill="#171616"/>
<path d="M1250.21 606L1272.22 502.32H1286.18L1308.32 606H1294.62L1289.89 579.888H1268.77L1263.78 606H1250.21ZM1270.69 569.52H1287.97L1279.26 522.8L1270.69 569.52Z" fill="#171616"/>
<path d="M1149.81 606V502.32H1159.67L1189.11 571.184V502.32H1201.14V606H1191.93L1162.1 535.216V606H1149.81Z" fill="#171616"/>
<path d="M1059.29 606V502.32H1099.48V513.072H1073.75V547.376H1094.62V557.616H1073.75V595.632H1099.74V606H1059.29Z" fill="#171616"/>
<path d="M953.764 606V502.32H977.572C982.265 502.32 986.318 502.832 989.732 503.856C993.23 504.88 996.132 506.459 998.436 508.592C1000.74 510.725 1002.45 513.456 1003.56 516.784C1004.66 520.027 1005.22 523.867 1005.22 528.304C1005.22 532.571 1004.66 536.283 1003.56 539.44C1002.53 542.512 1000.91 544.944 998.692 546.736C996.558 548.528 993.785 549.68 990.372 550.192C994.553 551.131 997.924 552.752 1000.48 555.056C1003.04 557.275 1004.92 560.176 1006.12 563.76C1007.4 567.259 1008.04 571.483 1008.04 576.432C1008.04 580.869 1007.52 584.923 1006.5 588.592C1005.48 592.261 1003.85 595.376 1001.64 597.936C999.502 600.496 996.729 602.501 993.316 603.952C989.988 605.317 986.02 606 981.412 606H953.764ZM968.228 595.632H977.956C984.441 595.632 988.75 594.139 990.884 591.152C993.102 588.08 994.212 583.173 994.212 576.432C994.212 572.08 993.614 568.453 992.42 565.552C991.31 562.565 989.476 560.347 986.916 558.896C984.441 557.36 981.07 556.592 976.804 556.592H968.228V595.632ZM968.228 545.584H976.804C980.9 545.584 984.1 545.029 986.404 543.92C988.708 542.725 990.329 540.848 991.268 538.288C992.206 535.728 992.676 532.4 992.676 528.304C992.676 523.525 991.95 520.069 990.5 517.936C989.049 515.803 986.788 514.48 983.716 513.968C980.644 513.371 976.633 513.072 971.684 513.072H968.228V545.584Z" fill="#171616"/>
<path d="M846.732 606L868.748 502.32H882.7L904.844 606H891.148L886.412 579.888H865.292L860.3 606H846.732ZM867.212 569.52H884.492L875.788 522.8L867.212 569.52Z" fill="#171616"/>
<path d="M737.654 606L720.758 502.32H732.79L743.926 576.816L757.878 502.704H768.118L782.198 577.2L793.078 502.32H804.854L788.214 606H777.718L763.254 529.2L748.662 606H737.654Z" fill="#171616"/>
<path d="M622.439 606V502.32H636.903V551.216L660.711 502.32H674.151L653.671 548.016L677.479 606H663.399L643.559 557.36L636.903 569.392V606H622.439Z" fill="#171616"/>
<path d="M453.014 606V502.32H467.478V551.216L491.286 502.32H504.726L484.246 548.016L508.054 606H493.974L474.134 557.36L467.478 569.392V606H453.014Z" fill="#171616"/>
<path d="M374.723 607.152C367.385 607.152 361.667 605.616 357.571 602.544C353.561 599.472 350.745 595.333 349.123 590.128C347.587 584.923 346.819 579.12 346.819 572.72V536.112C346.819 529.115 347.587 523.013 349.123 517.808C350.745 512.603 353.561 508.592 357.571 505.776C361.667 502.875 367.385 501.424 374.723 501.424C381.209 501.424 386.329 502.619 390.083 505.008C393.923 507.397 396.654 510.811 398.275 515.248C399.982 519.685 400.835 525.019 400.835 531.248V539.44H387.139V532.144C387.139 528.304 386.926 524.933 386.499 522.032C386.158 519.045 385.134 516.741 383.427 515.12C381.721 513.499 378.862 512.688 374.851 512.688C370.755 512.688 367.769 513.584 365.891 515.376C364.014 517.083 362.777 519.557 362.179 522.8C361.667 525.957 361.411 529.669 361.411 533.936V575.024C361.411 580.229 361.838 584.368 362.691 587.44C363.545 590.427 364.953 592.56 366.915 593.84C368.878 595.12 371.523 595.76 374.851 595.76C378.777 595.76 381.593 594.907 383.299 593.2C385.006 591.408 386.073 588.976 386.499 585.904C386.926 582.832 387.139 579.248 387.139 575.152V567.472H400.835V575.152C400.835 581.467 400.067 587.056 398.531 591.92C396.995 596.699 394.35 600.453 390.595 603.184C386.841 605.829 381.55 607.152 374.723 607.152Z" fill="#171616"/>
<path d="M242.332 606L264.348 502.32H278.3L300.444 606H286.748L282.012 579.888H260.892L255.9 606H242.332ZM262.812 569.52H280.092L271.388 522.8L262.812 569.52Z" fill="#171616"/>
<path d="M163.896 608.432V598.064C167.054 598.064 169.614 597.851 171.576 597.424C173.539 596.997 175.032 596.229 176.056 595.12C177.166 594.011 177.934 592.432 178.36 590.384C178.787 588.251 179 585.563 179 582.32V502.32H193.336V582.576C193.336 588.549 192.696 593.456 191.416 597.296C190.136 601.051 187.875 603.867 184.632 605.744C181.39 607.536 176.782 608.432 170.808 608.432H163.896Z" fill="#171616"/>
</svg>
